# xmcd
#
# Track frame offsets:
#	150
#	9130
#	21905
#	36760
#	46142
#	56637
#	66660
#	76832
#	86067
#	95185
#	104117
#	116117
#	128432
#	140795
#	150755
#	161422
#	173812
#	185040
#	195065
#	202397
#
# Disc length: 2842 seconds
#
# Revision: 1
# Processed by: cddbd v1.5.2PL0 Copyright (c) Steve Scherf et al.
# Submitted via: EZCDAudioConverter 1.3.4.1
#
DISCID=120b1814
DTITLE=Various Artist - Surf Monsters
DYEAR=1900
DGENRE=Instrumental
TTITLE0=Man Or Astoman? - Flotation Devices For Frequencies Yet To Be Detected
TTITLE1=The Bomboras - Planet Of The Apehangers
TTITLE2=Satan's Pilgrims - Harem Nocturne
TTITLE3=Original Surfaris - Bombora
TTITLE4=Huevos Rancheros - Beach Blanket Blackout
TTITLE5=Dave Myers and The Surftones - Church Key
TTITLE6=The Centurions - Bullwinkle (Part 2)
TTITLE7=Cocktail Preachers - Albatross Joe
TTITLE8=The Sentinals - Exotic
TTITLE9=Barbacoa - Northern Spy
TTITLE10=Tiki Tones - The Island Of Lost Soul
TTITLE11=Dave Myers and The Surftones - Moment Of Truth
TTITLE12=The Dynotones - Devil's Martini
TTITLE13=Space Cossacks - The Apes Of Wrath
TTITLE14=The Impacts - Wipe Out
TTITLE15=The Sub-Mersians - Dr. Yes
TTITLE16=Lively Ones - Miserlou
TTITLE17=The Sentinals - Big Surf
TTITLE18=Powerjive - Surf Session At Sunset
TTITLE19=Lively Ones - Surf Rider
EXTD=
EXTT0=
EXTT1=
EXTT2=
EXTT3=
EXTT4=
EXTT5=
EXTT6=
EXTT7=
EXTT8=
EXTT9=
EXTT10=
EXTT11=
EXTT12=
EXTT13=
EXTT14=
EXTT15=
EXTT16=
EXTT17=
EXTT18=
EXTT19=
PLAYORDER=
